<svg width="24" height="24" viewBox="0 0 24 24" fill="none" xmlns="http://www.w3.org/2000/svg">
<g clip-path="url(#clip0_56_6)">
<path d="M-6 -4.9215C-6 -6.34575 -4.8165 -7.5 -3.35625 -7.5H27.3562C28.8165 -7.5 30 -6.34575 30 -4.9215V25.9215C30 27.3458 28.8165 28.5 27.3562 28.5H-3.35625C-4.8165 28.5 -6 27.3458 -6 25.9215V-4.9215ZM5.12175 22.6365V6.38025H-0.2805V22.6365H5.12175ZM2.42175 4.1595C4.305 4.1595 5.47725 2.913 5.47725 1.3515C5.4435 -0.24375 4.30725 -1.4565 2.45775 -1.4565C0.60825 -1.4565 -0.6 -0.2415 -0.6 1.3515C-0.6 2.913 0.57225 4.1595 2.38575 4.1595H2.42175ZM13.4648 22.6365V13.5578C13.4648 13.0718 13.5007 12.5857 13.6447 12.2392C14.034 11.2695 14.9228 10.2637 16.4168 10.2637C18.372 10.2637 19.1527 11.7533 19.1527 13.9403V22.6365H24.555V13.3125C24.555 8.3175 21.891 5.9955 18.336 5.9955C15.4695 5.9955 14.1848 7.5705 13.4648 8.67975V8.736H13.4288C13.4407 8.71722 13.4527 8.69847 13.4648 8.67975V6.38025H8.06475C8.13225 7.90575 8.06475 22.6365 8.06475 22.6365H13.4648Z" fill="url(#paint0_linear_56_6)"/>
</g>
<defs>
<linearGradient id="paint0_linear_56_6" x1="12" y1="-7.5" x2="12" y2="28.5" gradientUnits="userSpaceOnUse">
<stop stop-color="#EC99C1"/>
<stop offset="1" stop-color="#F63290"/>
</linearGradient>
<clipPath id="clip0_56_6">
<rect width="24" height="24" fill="white"/>
</clipPath>
</defs>
</svg>
