<svg width="235" height="36" viewBox="0 0 235 36" fill="none" xmlns="http://www.w3.org/2000/svg">
<path d="M17.128 35.384L16.888 35L17.128 32.168C18.184 32.072 18.968 31.976 19.48 31.88C19.992 31.752 20.344 31.576 20.536 31.352C20.728 31.128 20.824 30.824 20.824 30.44C20.824 30.216 20.808 29.976 20.776 29.72C20.744 29.432 20.68 29.112 20.584 28.76L19.576 25.064C18.968 25.032 18.216 25.016 17.32 25.016C16.456 24.984 15.736 24.968 15.16 24.968C14.392 24.968 13.576 25.016 12.712 25.112C11.848 25.176 11.128 25.24 10.552 25.304L9.35202 29C9.16002 29.704 9.06402 30.2 9.06402 30.488C9.06402 31.064 9.22402 31.464 9.54402 31.688C9.89602 31.912 10.488 32.024 11.32 32.024H13.384L13.624 32.36L13.288 35.288C13.288 35.288 12.904 35.256 12.136 35.192C11.4 35.16 10.488 35.112 9.40002 35.048C8.34402 35.016 7.30402 35 6.28002 35C5.41602 35 4.53602 35 3.64002 35C2.74402 35.032 1.99202 35.064 1.38402 35.096C0.80802 35.128 0.52002 35.144 0.52002 35.144L0.85602 32.024C1.62402 31.896 2.24802 31.592 2.72802 31.112C3.20802 30.632 3.64002 29.848 4.02402 28.76L12.616 4.42402L19.96 3.65602L20.488 3.89602C20.488 3.89602 20.584 4.31202 20.776 5.14402C21 5.97602 21.304 7.09602 21.688 8.50402C22.072 9.88002 22.504 11.448 22.984 13.208C23.464 14.968 23.944 16.776 24.424 18.632C24.936 20.488 25.448 22.296 25.96 24.056C26.472 25.784 26.952 27.336 27.4 28.712C27.72 29.864 28.152 30.68 28.696 31.16C29.272 31.64 30.104 31.928 31.192 32.024L31.384 32.36L31.048 35.144C31.048 35.144 30.696 35.128 29.992 35.096C29.32 35.064 28.52 35.032 27.592 35C26.696 35 25.896 35 25.192 35C23.848 35 22.552 35.032 21.304 35.096C20.056 35.16 19.048 35.224 18.28 35.288C17.512 35.352 17.128 35.384 17.128 35.384ZM11.704 21.272H15.16C15.672 21.272 16.264 21.256 16.936 21.224C17.64 21.192 18.232 21.16 18.712 21.128L15.88 10.424H15.256L11.704 21.272Z" fill="#121211"/>
<path d="M45.3745 32.408C46.1745 32.248 46.7345 31.96 47.0545 31.544C47.4065 31.096 47.5985 30.488 47.6305 29.72L47.7745 21.416C47.7745 20.008 47.5185 18.968 47.0065 18.296C46.4945 17.592 45.7105 17.24 44.6545 17.24C44.1425 17.24 43.5985 17.352 43.0225 17.576C42.4785 17.768 41.9825 18.008 41.5345 18.296C41.0865 18.584 40.7185 18.84 40.4305 19.064C40.3985 19.928 40.3505 20.904 40.2865 21.992C40.2225 23.08 40.1585 24.168 40.0945 25.256C40.0625 26.312 40.0305 27.256 39.9985 28.088C39.9665 28.92 39.9505 29.512 39.9505 29.864C39.9505 30.696 40.0625 31.272 40.2865 31.592C40.5105 31.88 40.8785 32.024 41.3905 32.024C41.6145 32.024 41.8865 32.024 42.2065 32.024C42.5265 31.992 42.6865 31.976 42.6865 31.976L42.7825 32.168L42.3025 35.144C42.3025 35.144 42.0145 35.128 41.4385 35.096C40.8625 35.064 40.1745 35.032 39.3745 35C38.6065 35 37.9025 35 37.2625 35C36.4305 35 35.5665 35.016 34.6705 35.048C33.8065 35.112 33.0705 35.16 32.4625 35.192C31.8865 35.256 31.5985 35.288 31.5985 35.288L31.9825 32.312C32.9105 32.184 33.5505 31.928 33.9025 31.544C34.2865 31.16 34.4785 30.52 34.4785 29.624V19.448C34.4785 18.36 34.3025 17.608 33.9505 17.192C33.6305 16.776 33.0225 16.568 32.1265 16.568H31.5025L31.3105 16.328L31.5505 13.832C33.0225 13.608 34.4305 13.384 35.7745 13.16C37.1185 12.904 38.2225 12.696 39.0865 12.536C39.9505 12.344 40.3825 12.248 40.3825 12.248L40.7665 12.728C40.7665 12.728 40.6865 13.08 40.5265 13.784C40.3985 14.456 40.3025 15.208 40.2385 16.04L40.4305 16.232C40.8145 15.912 41.2785 15.528 41.8225 15.08C42.3985 14.632 42.9905 14.2 43.5985 13.784C44.2385 13.368 44.8305 13.016 45.3745 12.728C45.9185 12.44 46.3505 12.296 46.6705 12.296C48.9425 12.296 50.7025 12.84 51.9505 13.928C53.2305 15.016 53.8705 16.536 53.8705 18.488C53.8705 18.968 53.8225 19.704 53.7265 20.696C53.6305 21.688 53.5185 22.776 53.3905 23.96C53.2945 25.144 53.1985 26.264 53.1025 27.32C53.0385 28.376 53.0065 29.208 53.0065 29.816C53.0065 30.616 53.1185 31.208 53.3425 31.592C53.5665 31.944 53.9505 32.12 54.4945 32.12C54.7825 32.12 55.1025 32.104 55.4545 32.072C55.8065 32.04 55.9825 32.024 55.9825 32.024L56.0785 32.216L55.6465 35.144C55.6465 35.144 55.4545 35.128 55.0705 35.096C54.7185 35.096 54.2705 35.08 53.7265 35.048C53.1825 35.048 52.6225 35.032 52.0465 35C51.4705 35 50.9425 35 50.4625 35C49.9825 35 49.4385 35.016 48.8305 35.048C48.2545 35.112 47.6785 35.16 47.1025 35.192C46.5265 35.224 46.0465 35.256 45.6625 35.288C45.3105 35.352 45.1345 35.384 45.1345 35.384L45.3745 32.408Z" fill="#121211"/>
<path d="M75.3516 35.576C73.9436 35.576 72.8236 35.256 71.9916 34.616C71.1916 33.976 70.7116 33.064 70.5516 31.88L70.1676 31.736C69.5596 32.376 68.9196 32.984 68.2476 33.56C67.5756 34.104 66.9516 34.552 66.3756 34.904C65.7996 35.224 65.3036 35.384 64.8876 35.384C63.6396 35.384 62.5196 35.08 61.5276 34.472C60.5356 33.864 59.7516 33.032 59.1756 31.976C58.5996 30.92 58.3116 29.736 58.3116 28.424C58.3116 27.432 58.5676 26.584 59.0796 25.88C59.6236 25.144 60.2956 24.664 61.0956 24.44L70.3596 22.28L70.4076 21.128C70.4076 19.752 70.0396 18.68 69.3036 17.912C68.5996 17.144 67.5916 16.76 66.2796 16.76C65.3836 16.76 64.4236 16.984 63.3996 17.432C62.3756 17.848 61.4636 18.376 60.6636 19.016L60.2316 18.824L59.4156 15.944C60.3436 15.4 61.3836 14.856 62.5356 14.312C63.6876 13.736 64.7756 13.256 65.7996 12.872C66.8556 12.488 67.6556 12.296 68.1996 12.296C70.0556 12.296 71.5756 12.584 72.7596 13.16C73.9436 13.736 74.8076 14.52 75.3516 15.512C75.8956 16.472 76.1676 17.576 76.1676 18.824C76.1676 19.24 76.1196 19.88 76.0236 20.744C75.9276 21.608 75.8156 22.552 75.6876 23.576C75.5596 24.6 75.4476 25.576 75.3516 26.504C75.2556 27.432 75.2076 28.168 75.2076 28.712C75.2076 29.32 75.3516 29.8 75.6396 30.152C75.9596 30.504 76.3916 30.68 76.9356 30.68C77.3516 30.68 77.7676 30.584 78.1836 30.392C78.6316 30.2 78.9836 30.024 79.2396 29.864L79.9596 30.872C79.6396 31.416 79.2236 32.04 78.7116 32.744C78.1996 33.416 77.6556 34.024 77.0796 34.568C76.5036 35.08 75.9276 35.416 75.3516 35.576ZM66.6636 30.824C67.1436 30.824 67.7036 30.696 68.3436 30.44C69.0156 30.152 69.6076 29.816 70.1196 29.432L70.2636 24.872L65.1276 26.312C64.3596 26.536 63.9756 27.064 63.9756 27.896C63.9756 28.728 64.2156 29.432 64.6956 30.008C65.2076 30.552 65.8636 30.824 66.6636 30.824Z" fill="#121211"/>
<path d="M97.2985 35C96.6265 35 95.8905 35.016 95.0905 35.048C94.2905 35.112 93.5225 35.176 92.7865 35.24C92.0825 35.304 91.5065 35.352 91.0585 35.384C90.6105 35.448 90.3865 35.48 90.3865 35.48L90.7225 32.312C92.0985 32.056 93.0265 31.672 93.5065 31.16C93.9865 30.616 94.2265 29.72 94.2265 28.472L94.2745 9.65602C94.2745 8.76002 94.1625 8.13602 93.9385 7.78402C93.7465 7.43202 93.3465 7.25602 92.7385 7.25602C92.4505 7.25602 92.0985 7.27202 91.6825 7.30402C91.2985 7.33602 91.1065 7.35202 91.1065 7.35202L90.7705 6.96802L91.2025 4.08802C91.2025 4.08802 91.4585 4.10402 91.9705 4.13602C92.4825 4.13602 93.1065 4.13602 93.8425 4.13602C94.6105 4.13602 95.3465 4.15202 96.0505 4.18402C96.7865 4.18402 97.3785 4.18402 97.8265 4.18402C98.1465 4.18402 98.5945 4.18402 99.1705 4.18402C99.7785 4.15202 100.419 4.13602 101.091 4.13602C101.763 4.10402 102.403 4.07202 103.011 4.04002C103.619 4.00802 104.115 3.99202 104.499 3.99202C104.883 3.96002 105.075 3.94402 105.075 3.94402C108.371 3.94402 110.883 4.58402 112.611 5.86402C114.339 7.11202 115.203 8.95202 115.203 11.384C115.203 13.048 114.723 14.488 113.763 15.704C112.803 16.92 111.555 17.928 110.019 18.728C111.331 19.048 112.483 19.528 113.475 20.168C114.499 20.808 115.315 21.608 115.923 22.568C116.531 23.496 116.835 24.6 116.835 25.88C116.835 27.8 116.307 29.48 115.251 30.92C114.227 32.36 112.787 33.48 110.931 34.28C109.075 35.08 106.899 35.48 104.403 35.48C103.955 35.48 103.411 35.448 102.771 35.384C102.163 35.352 101.523 35.304 100.851 35.24C100.211 35.176 99.5705 35.112 98.9305 35.048C98.3225 35.016 97.7785 35 97.2985 35ZM100.515 21.512L100.323 28.616C100.323 29.64 100.675 30.376 101.379 30.824C102.083 31.24 103.251 31.448 104.883 31.448C106.483 31.448 107.715 31.032 108.579 30.2C109.475 29.336 109.923 28.136 109.923 26.6C109.923 23.88 108.275 22.168 104.979 21.464L100.515 21.512ZM100.611 17.336C100.611 17.336 100.803 17.352 101.187 17.384C101.571 17.416 102.035 17.48 102.579 17.576C103.123 17.64 103.635 17.688 104.115 17.72C104.627 17.752 104.995 17.768 105.219 17.768C105.219 17.768 105.379 17.688 105.699 17.528C106.051 17.368 106.451 17.096 106.899 16.712C107.347 16.296 107.731 15.768 108.051 15.128C108.403 14.456 108.579 13.608 108.579 12.584C108.579 10.952 108.035 9.75202 106.947 8.98402C105.859 8.21602 104.163 7.83202 101.859 7.83202C101.539 7.83202 101.315 7.89602 101.187 8.02402C101.091 8.12002 101.027 8.36002 100.995 8.74402C100.931 9.60802 100.867 10.584 100.803 11.672C100.771 12.728 100.739 13.752 100.707 14.744C100.675 15.736 100.643 16.6 100.611 17.336Z" fill="#121211"/>
<path d="M130.518 35.576C128.278 35.576 126.342 35.128 124.71 34.232C123.11 33.336 121.862 32.056 120.966 30.392C120.102 28.728 119.67 26.776 119.67 24.536C119.67 22.776 119.958 21.16 120.534 19.688C121.11 18.216 121.91 16.936 122.934 15.848C123.958 14.728 125.158 13.864 126.534 13.256C127.91 12.616 129.398 12.296 130.998 12.296C136.374 12.296 139.062 15.016 139.062 20.456C139.062 20.936 139.014 21.432 138.918 21.944C138.854 22.456 138.79 22.856 138.726 23.144L138.15 23.72H125.718C125.782 25.928 126.294 27.656 127.254 28.904C128.246 30.12 129.622 30.792 131.382 30.92C133.142 31.048 135.206 30.568 137.574 29.48L137.91 29.672L138.678 32.024C138.038 32.504 137.238 33.032 136.278 33.608C135.318 34.152 134.326 34.616 133.302 35C132.278 35.384 131.35 35.576 130.518 35.576ZM125.718 21.08L132.294 20.696C132.678 20.664 132.918 20.584 133.014 20.456C133.142 20.296 133.206 20.008 133.206 19.592C133.206 18.44 132.95 17.56 132.438 16.952C131.926 16.344 131.174 16.04 130.182 16.04C128.934 16.04 127.91 16.472 127.11 17.336C126.342 18.168 125.878 19.416 125.718 21.08Z" fill="#121211"/>
<path d="M158.93 35.576C157.522 35.576 156.402 35.256 155.57 34.616C154.77 33.976 154.29 33.064 154.13 31.88L153.746 31.736C153.138 32.376 152.498 32.984 151.826 33.56C151.154 34.104 150.53 34.552 149.954 34.904C149.378 35.224 148.882 35.384 148.466 35.384C147.218 35.384 146.098 35.08 145.106 34.472C144.114 33.864 143.33 33.032 142.754 31.976C142.178 30.92 141.89 29.736 141.89 28.424C141.89 27.432 142.146 26.584 142.658 25.88C143.202 25.144 143.874 24.664 144.674 24.44L153.938 22.28L153.986 21.128C153.986 19.752 153.618 18.68 152.882 17.912C152.178 17.144 151.17 16.76 149.858 16.76C148.962 16.76 148.002 16.984 146.978 17.432C145.954 17.848 145.042 18.376 144.242 19.016L143.81 18.824L142.994 15.944C143.922 15.4 144.962 14.856 146.114 14.312C147.266 13.736 148.354 13.256 149.378 12.872C150.434 12.488 151.234 12.296 151.778 12.296C153.634 12.296 155.154 12.584 156.338 13.16C157.522 13.736 158.386 14.52 158.93 15.512C159.474 16.472 159.746 17.576 159.746 18.824C159.746 19.24 159.698 19.88 159.602 20.744C159.506 21.608 159.394 22.552 159.266 23.576C159.138 24.6 159.026 25.576 158.93 26.504C158.834 27.432 158.786 28.168 158.786 28.712C158.786 29.32 158.93 29.8 159.218 30.152C159.538 30.504 159.97 30.68 160.514 30.68C160.93 30.68 161.346 30.584 161.762 30.392C162.21 30.2 162.562 30.024 162.818 29.864L163.538 30.872C163.218 31.416 162.802 32.04 162.29 32.744C161.778 33.416 161.234 34.024 160.658 34.568C160.082 35.08 159.506 35.416 158.93 35.576ZM150.242 30.824C150.722 30.824 151.282 30.696 151.922 30.44C152.594 30.152 153.186 29.816 153.698 29.432L153.842 24.872L148.706 26.312C147.938 26.536 147.554 27.064 147.554 27.896C147.554 28.728 147.794 29.432 148.274 30.008C148.786 30.552 149.442 30.824 150.242 30.824Z" fill="#121211"/>
<path d="M173.685 35.576C171.413 35.576 169.749 35.096 168.693 34.136C167.637 33.176 167.109 31.688 167.109 29.672V18.968C167.109 17.976 166.933 17.304 166.581 16.952C166.229 16.6 165.541 16.408 164.517 16.376L164.037 16.04L164.373 13.688C165.397 13.208 166.389 12.68 167.349 12.104C168.309 11.496 169.157 10.936 169.893 10.424C170.661 9.88002 171.269 9.44802 171.717 9.12802C172.165 8.77602 172.389 8.60002 172.389 8.60002L173.733 9.27202C173.733 9.27202 173.669 9.64002 173.541 10.376C173.445 11.08 173.333 12.088 173.205 13.4L178.869 13.256L179.061 13.496L178.581 16.712L172.917 16.568C172.821 17.944 172.741 19.512 172.677 21.272C172.645 23 172.629 24.92 172.629 27.032C172.629 28.408 172.869 29.4 173.349 30.008C173.829 30.616 174.613 30.92 175.701 30.92C176.405 30.92 177.061 30.808 177.669 30.584C178.277 30.36 178.581 30.248 178.581 30.248L179.205 31.784C179.205 31.784 178.981 31.976 178.533 32.36C178.117 32.744 177.589 33.192 176.949 33.704C176.341 34.184 175.733 34.616 175.125 35C174.517 35.384 174.037 35.576 173.685 35.576Z" fill="#121211"/>
<path d="M181.846 32.264C182.806 32.2 183.446 31.944 183.766 31.496C184.118 31.048 184.294 30.2 184.294 28.952V19.4C184.294 18.312 184.15 17.576 183.862 17.192C183.574 16.776 183.03 16.568 182.23 16.568C182.038 16.568 181.83 16.584 181.606 16.616C181.414 16.616 181.318 16.616 181.318 16.616L181.078 16.28L181.366 13.88C182.742 13.656 184.086 13.416 185.398 13.16C186.71 12.904 187.798 12.696 188.662 12.536C189.558 12.344 190.006 12.248 190.006 12.248L190.438 12.68C190.438 12.68 190.39 12.92 190.294 13.4C190.23 13.848 190.166 14.424 190.102 15.128C190.038 15.8 189.99 16.488 189.958 17.192L190.246 17.384C191.27 15.88 192.374 14.712 193.558 13.88C194.742 13.048 195.878 12.632 196.966 12.632C197.478 12.632 197.878 12.664 198.166 12.728C198.486 12.76 198.646 12.776 198.646 12.776L198.838 13.16C198.838 13.16 198.79 13.432 198.694 13.976C198.63 14.488 198.534 15.176 198.406 16.04C198.31 16.904 198.198 17.848 198.07 18.872C197.974 19.896 197.91 20.888 197.878 21.848L194.806 22.04C194.806 20.504 194.71 19.496 194.518 19.016C194.358 18.504 194.006 18.248 193.462 18.248C192.95 18.248 192.406 18.44 191.83 18.824C191.254 19.208 190.71 19.736 190.198 20.408C190.198 20.408 190.182 20.696 190.15 21.272C190.118 21.816 190.07 22.52 190.006 23.384C189.974 24.248 189.942 25.128 189.91 26.024C189.878 26.92 189.846 27.704 189.814 28.376C189.782 29.048 189.766 29.48 189.766 29.672C189.766 30.504 189.894 31.08 190.15 31.4C190.438 31.72 190.934 31.88 191.638 31.88C192.086 31.88 192.598 31.864 193.174 31.832C193.75 31.768 194.038 31.736 194.038 31.736L194.182 32.024L193.654 35.192C193.654 35.192 193.446 35.176 193.03 35.144C192.614 35.112 192.07 35.08 191.398 35.048C190.758 35.048 190.086 35.032 189.382 35C188.678 35 188.038 35 187.462 35C186.502 35 185.558 35.016 184.63 35.048C183.702 35.08 182.934 35.112 182.326 35.144C181.75 35.176 181.462 35.192 181.462 35.192L181.846 32.264Z" fill="#121211"/>
<path d="M200.765 35.528L201.149 32.504C202.077 32.344 202.749 32.024 203.165 31.544C203.613 31.064 203.837 30.392 203.837 29.528V19.16C203.837 18.136 203.693 17.432 203.405 17.048C203.117 16.664 202.589 16.472 201.821 16.472C201.629 16.472 201.389 16.504 201.101 16.568C200.845 16.6 200.717 16.616 200.717 16.616L201.005 13.88C202.093 13.72 203.165 13.56 204.221 13.4C205.309 13.208 206.285 13.032 207.149 12.872C208.045 12.68 208.749 12.536 209.261 12.44C209.805 12.344 210.077 12.296 210.077 12.296L210.509 13.064C210.349 13.416 210.189 14.104 210.029 15.128C209.901 16.12 209.789 17.368 209.693 18.872C209.597 20.344 209.517 22.04 209.453 23.96C209.389 25.848 209.357 27.848 209.357 29.96C209.357 30.696 209.469 31.24 209.693 31.592C209.917 31.912 210.301 32.072 210.845 32.072C211.101 32.072 211.389 32.056 211.709 32.024C212.061 31.992 212.237 31.976 212.237 31.976L212.381 32.216L211.901 35.144C211.901 35.144 211.725 35.128 211.373 35.096C211.021 35.096 210.557 35.08 209.981 35.048C209.437 35.048 208.861 35.032 208.253 35C207.677 35 207.133 35 206.621 35C205.853 35 205.005 35.048 204.077 35.144C203.181 35.24 202.397 35.32 201.725 35.384C201.085 35.48 200.765 35.528 200.765 35.528ZM206.189 8.16802C205.101 8.16802 204.269 7.86402 203.693 7.25602C203.149 6.61602 202.877 5.80002 202.877 4.80802C202.877 3.68802 203.229 2.77602 203.933 2.07202C204.637 1.33602 205.549 0.968018 206.669 0.968018C207.725 0.968018 208.525 1.28802 209.069 1.92802C209.645 2.56802 209.933 3.38402 209.933 4.37602C209.933 5.49602 209.597 6.40802 208.925 7.11202C208.253 7.81602 207.341 8.16802 206.189 8.16802Z" fill="#121211"/>
<path d="M214.492 33.656L226.636 15.896L222.22 16.184C221.1 16.28 220.22 16.472 219.58 16.76C218.972 17.016 218.54 17.432 218.284 18.008C218.028 18.552 217.852 19.352 217.756 20.408L215.356 20.696C215.356 20.696 215.372 20.44 215.404 19.928C215.468 19.384 215.532 18.712 215.596 17.912C215.66 17.08 215.708 16.216 215.74 15.32C215.804 14.392 215.852 13.528 215.884 12.728L216.172 12.44L222.412 12.824L233.5 12.968L234.124 14.36C232.172 16.92 230.348 19.384 228.652 21.752C226.988 24.12 225.532 26.216 224.284 28.04C223.068 29.832 222.172 31.16 221.596 32.024L226.78 31.592C228.156 31.464 229.196 30.968 229.9 30.104C230.604 29.208 231.084 27.816 231.34 25.928L233.836 25.688C233.836 25.688 233.788 25.976 233.692 26.552C233.628 27.128 233.532 27.864 233.404 28.76C233.308 29.656 233.212 30.616 233.116 31.64C233.052 32.632 233.02 33.576 233.02 34.472L232.3 35.24L217.948 34.904L215.308 35.192L214.492 33.656Z" fill="#121211"/>
</svg>
